<mxfile host="Electron" agent="Mozilla/5.0 (Windows NT 10.0; Win64; x64) AppleWebKit/537.36 (KHTML, like Gecko) draw.io/24.7.5 Chrome/126.0.6478.183 Electron/31.3.0 Safari/537.36" version="24.7.5">
  <diagram id="C5RBs43oDa-KdzZeNtuy" name="Page-1">
    <mxGraphModel dx="792" dy="1187" grid="1" gridSize="10" guides="1" tooltips="1" connect="1" arrows="1" fold="1" page="1" pageScale="1" pageWidth="827" pageHeight="1169" math="0" shadow="0">
      <root>
        <mxCell id="WIyWlLk6GJQsqaUBKTNV-0" />
        <mxCell id="WIyWlLk6GJQsqaUBKTNV-1" parent="WIyWlLk6GJQsqaUBKTNV-0" />
        <mxCell id="zkfFHV4jXpPFQw0GAbJ--0" value="&lt;&lt;abstract&gt;&gt;&#xa;Agent" style="swimlane;fontStyle=2;align=center;verticalAlign=top;childLayout=stackLayout;horizontal=1;startSize=40;horizontalStack=0;resizeParent=1;resizeLast=0;collapsible=1;marginBottom=0;rounded=0;shadow=0;strokeWidth=1;" parent="WIyWlLk6GJQsqaUBKTNV-1" vertex="1">
          <mxGeometry x="446.38" y="20" width="107.25" height="66" as="geometry">
            <mxRectangle x="230" y="140" width="160" height="26" as="alternateBounds" />
          </mxGeometry>
        </mxCell>
        <mxCell id="zkfFHV4jXpPFQw0GAbJ--1" value="# setup() : void" style="text;align=left;verticalAlign=top;spacingLeft=4;spacingRight=4;overflow=hidden;rotatable=0;points=[[0,0.5],[1,0.5]];portConstraint=eastwest;" parent="zkfFHV4jXpPFQw0GAbJ--0" vertex="1">
          <mxGeometry y="40" width="107.25" height="26" as="geometry" />
        </mxCell>
        <mxCell id="zkfFHV4jXpPFQw0GAbJ--6" value="ProductManager" style="swimlane;fontStyle=0;align=center;verticalAlign=top;childLayout=stackLayout;horizontal=1;startSize=26;horizontalStack=0;resizeParent=1;resizeLast=0;collapsible=1;marginBottom=0;rounded=0;shadow=0;strokeWidth=1;" parent="WIyWlLk6GJQsqaUBKTNV-1" vertex="1">
          <mxGeometry x="390" y="120" width="220" height="164" as="geometry">
            <mxRectangle x="130" y="380" width="160" height="26" as="alternateBounds" />
          </mxGeometry>
        </mxCell>
        <mxCell id="uo48DpWydSHIOrstyPxe-14" value="- productTypesList : ArrayList&lt;String&gt;" style="text;align=left;verticalAlign=top;spacingLeft=4;spacingRight=4;overflow=hidden;rotatable=0;points=[[0,0.5],[1,0.5]];portConstraint=eastwest;" parent="zkfFHV4jXpPFQw0GAbJ--6" vertex="1">
          <mxGeometry y="26" width="220" height="26" as="geometry" />
        </mxCell>
        <mxCell id="pAeidt-d0ilI6zGPQ01c-30" value="- products : ArrayList&lt;AgentController&gt;" style="text;align=left;verticalAlign=top;spacingLeft=4;spacingRight=4;overflow=hidden;rotatable=0;points=[[0,0.5],[1,0.5]];portConstraint=eastwest;" parent="zkfFHV4jXpPFQw0GAbJ--6" vertex="1">
          <mxGeometry y="52" width="220" height="26" as="geometry" />
        </mxCell>
        <mxCell id="zkfFHV4jXpPFQw0GAbJ--8" value="- agentContainer : ContainerController" style="text;align=left;verticalAlign=top;spacingLeft=4;spacingRight=4;overflow=hidden;rotatable=0;points=[[0,0.5],[1,0.5]];portConstraint=eastwest;rounded=0;shadow=0;html=0;" parent="zkfFHV4jXpPFQw0GAbJ--6" vertex="1">
          <mxGeometry y="78" width="220" height="26" as="geometry" />
        </mxCell>
        <mxCell id="3qOFRt8D9cqVfBlaZG_P-0" value="- productID : int" style="text;align=left;verticalAlign=top;spacingLeft=4;spacingRight=4;overflow=hidden;rotatable=0;points=[[0,0.5],[1,0.5]];portConstraint=eastwest;rounded=0;shadow=0;html=0;" parent="zkfFHV4jXpPFQw0GAbJ--6" vertex="1">
          <mxGeometry y="104" width="220" height="26" as="geometry" />
        </mxCell>
        <mxCell id="zkfFHV4jXpPFQw0GAbJ--9" value="" style="line;html=1;strokeWidth=1;align=left;verticalAlign=middle;spacingTop=-1;spacingLeft=3;spacingRight=3;rotatable=0;labelPosition=right;points=[];portConstraint=eastwest;" parent="zkfFHV4jXpPFQw0GAbJ--6" vertex="1">
          <mxGeometry y="130" width="220" height="8" as="geometry" />
        </mxCell>
        <mxCell id="zkfFHV4jXpPFQw0GAbJ--10" value="# setup() : void" style="text;align=left;verticalAlign=top;spacingLeft=4;spacingRight=4;overflow=hidden;rotatable=0;points=[[0,0.5],[1,0.5]];portConstraint=eastwest;fontStyle=0" parent="zkfFHV4jXpPFQw0GAbJ--6" vertex="1">
          <mxGeometry y="138" width="220" height="26" as="geometry" />
        </mxCell>
        <mxCell id="zkfFHV4jXpPFQw0GAbJ--12" value="" style="endArrow=block;endSize=10;endFill=0;shadow=0;strokeWidth=1;rounded=0;curved=0;edgeStyle=elbowEdgeStyle;elbow=vertical;" parent="WIyWlLk6GJQsqaUBKTNV-1" edge="1">
          <mxGeometry width="160" relative="1" as="geometry">
            <mxPoint x="499.72" y="120" as="sourcePoint" />
            <mxPoint x="499.72" y="86" as="targetPoint" />
            <Array as="points" />
          </mxGeometry>
        </mxCell>
        <mxCell id="pAeidt-d0ilI6zGPQ01c-15" style="edgeStyle=orthogonalEdgeStyle;rounded=0;orthogonalLoop=1;jettySize=auto;html=1;endArrow=diamondThin;endFill=1;startSize=10;endSize=10;exitX=1;exitY=0.5;exitDx=0;exitDy=0;" parent="WIyWlLk6GJQsqaUBKTNV-1" source="pAeidt-d0ilI6zGPQ01c-8" edge="1">
          <mxGeometry relative="1" as="geometry">
            <mxPoint x="390" y="205.02857142857135" as="targetPoint" />
            <Array as="points">
              <mxPoint x="360" y="105" />
              <mxPoint x="360" y="205" />
            </Array>
          </mxGeometry>
        </mxCell>
        <mxCell id="pAeidt-d0ilI6zGPQ01c-8" value="JPanel" style="rounded=0;whiteSpace=wrap;html=1;" parent="WIyWlLk6GJQsqaUBKTNV-1" vertex="1">
          <mxGeometry x="210" y="90" width="110" height="30" as="geometry" />
        </mxCell>
        <mxCell id="pAeidt-d0ilI6zGPQ01c-16" style="edgeStyle=orthogonalEdgeStyle;rounded=0;orthogonalLoop=1;jettySize=auto;html=1;endArrow=diamondThin;endFill=1;startSize=10;endSize=10;exitX=1;exitY=0.5;exitDx=0;exitDy=0;" parent="WIyWlLk6GJQsqaUBKTNV-1" source="pAeidt-d0ilI6zGPQ01c-9" edge="1">
          <mxGeometry relative="1" as="geometry">
            <mxPoint x="390" y="205.02857142857135" as="targetPoint" />
            <Array as="points">
              <mxPoint x="360" y="157" />
              <mxPoint x="360" y="205" />
            </Array>
          </mxGeometry>
        </mxCell>
        <mxCell id="pAeidt-d0ilI6zGPQ01c-9" value="JTable" style="rounded=0;whiteSpace=wrap;html=1;" parent="WIyWlLk6GJQsqaUBKTNV-1" vertex="1">
          <mxGeometry x="210" y="142" width="110" height="30" as="geometry" />
        </mxCell>
        <mxCell id="pAeidt-d0ilI6zGPQ01c-17" style="edgeStyle=orthogonalEdgeStyle;rounded=0;orthogonalLoop=1;jettySize=auto;html=1;endArrow=diamondThin;endFill=1;startSize=10;endSize=10;exitX=1;exitY=0.5;exitDx=0;exitDy=0;" parent="WIyWlLk6GJQsqaUBKTNV-1" source="pAeidt-d0ilI6zGPQ01c-10" edge="1">
          <mxGeometry relative="1" as="geometry">
            <mxPoint x="390" y="205.02857142857135" as="targetPoint" />
            <Array as="points">
              <mxPoint x="375" y="205" />
              <mxPoint x="375" y="205" />
            </Array>
          </mxGeometry>
        </mxCell>
        <mxCell id="pAeidt-d0ilI6zGPQ01c-10" value="DefaultTableModel" style="rounded=0;whiteSpace=wrap;html=1;" parent="WIyWlLk6GJQsqaUBKTNV-1" vertex="1">
          <mxGeometry x="198.62" y="190" width="131.38" height="30" as="geometry" />
        </mxCell>
        <mxCell id="pAeidt-d0ilI6zGPQ01c-20" style="edgeStyle=orthogonalEdgeStyle;rounded=0;orthogonalLoop=1;jettySize=auto;html=1;endArrow=diamondThin;endFill=1;startSize=10;endSize=10;" parent="WIyWlLk6GJQsqaUBKTNV-1" source="pAeidt-d0ilI6zGPQ01c-13" edge="1">
          <mxGeometry relative="1" as="geometry">
            <mxPoint x="319.0000000000001" y="295" as="sourcePoint" />
            <mxPoint x="390" y="205.02857142857135" as="targetPoint" />
            <Array as="points">
              <mxPoint x="360" y="255" />
              <mxPoint x="360" y="205" />
            </Array>
          </mxGeometry>
        </mxCell>
        <mxCell id="pAeidt-d0ilI6zGPQ01c-13" value="JButton" style="rounded=0;whiteSpace=wrap;html=1;" parent="WIyWlLk6GJQsqaUBKTNV-1" vertex="1">
          <mxGeometry x="210" y="240" width="110" height="30" as="geometry" />
        </mxCell>
        <mxCell id="pAeidt-d0ilI6zGPQ01c-26" style="edgeStyle=orthogonalEdgeStyle;rounded=0;orthogonalLoop=1;jettySize=auto;html=1;endSize=10;endArrow=open;endFill=0;" parent="WIyWlLk6GJQsqaUBKTNV-1" source="pAeidt-d0ilI6zGPQ01c-21" target="zkfFHV4jXpPFQw0GAbJ--6" edge="1">
          <mxGeometry relative="1" as="geometry">
            <mxPoint x="605" y="90" as="targetPoint" />
            <Array as="points">
              <mxPoint x="686" y="150" />
            </Array>
          </mxGeometry>
        </mxCell>
        <mxCell id="pAeidt-d0ilI6zGPQ01c-21" value="ContainerController" style="rounded=0;whiteSpace=wrap;html=1;" parent="WIyWlLk6GJQsqaUBKTNV-1" vertex="1">
          <mxGeometry x="620" y="56" width="131.38" height="30" as="geometry" />
        </mxCell>
        <mxCell id="pAeidt-d0ilI6zGPQ01c-23" style="edgeStyle=orthogonalEdgeStyle;rounded=0;orthogonalLoop=1;jettySize=auto;html=1;endSize=10;endArrow=diamondThin;endFill=1;" parent="WIyWlLk6GJQsqaUBKTNV-1" source="pAeidt-d0ilI6zGPQ01c-22" edge="1">
          <mxGeometry relative="1" as="geometry">
            <mxPoint x="390" y="205.02857142857135" as="targetPoint" />
            <Array as="points">
              <mxPoint x="360" y="55" />
              <mxPoint x="360" y="205" />
            </Array>
          </mxGeometry>
        </mxCell>
        <mxCell id="pAeidt-d0ilI6zGPQ01c-22" value="JFrame" style="rounded=0;whiteSpace=wrap;html=1;" parent="WIyWlLk6GJQsqaUBKTNV-1" vertex="1">
          <mxGeometry x="210" y="40" width="110" height="30" as="geometry" />
        </mxCell>
        <mxCell id="pAeidt-d0ilI6zGPQ01c-27" value="Constants" style="rounded=0;whiteSpace=wrap;html=1;" parent="WIyWlLk6GJQsqaUBKTNV-1" vertex="1">
          <mxGeometry x="630.69" y="180" width="110" height="30" as="geometry" />
        </mxCell>
        <mxCell id="pAeidt-d0ilI6zGPQ01c-28" style="edgeStyle=orthogonalEdgeStyle;rounded=0;orthogonalLoop=1;jettySize=auto;html=1;endSize=10;endArrow=none;endFill=0;dashed=1;startArrow=open;startFill=0;startSize=10;" parent="WIyWlLk6GJQsqaUBKTNV-1" source="pAeidt-d0ilI6zGPQ01c-27" target="zkfFHV4jXpPFQw0GAbJ--6" edge="1">
          <mxGeometry relative="1" as="geometry">
            <mxPoint x="696" y="90" as="sourcePoint" />
            <mxPoint x="604.9999999999999" y="260" as="targetPoint" />
            <Array as="points">
              <mxPoint x="686" y="240" />
            </Array>
          </mxGeometry>
        </mxCell>
        <mxCell id="pAeidt-d0ilI6zGPQ01c-29" value="&amp;lt;&amp;lt;use&amp;gt;&amp;gt;" style="edgeLabel;html=1;align=center;verticalAlign=middle;resizable=0;points=[];" parent="pAeidt-d0ilI6zGPQ01c-28" vertex="1" connectable="0">
          <mxGeometry x="0.1611" relative="1" as="geometry">
            <mxPoint as="offset" />
          </mxGeometry>
        </mxCell>
        <mxCell id="RA6bnnp4AeprtvjU2am9-0" style="edgeStyle=orthogonalEdgeStyle;rounded=0;orthogonalLoop=1;jettySize=auto;html=1;dashed=1;endArrow=open;endFill=0;endSize=10;" edge="1" parent="WIyWlLk6GJQsqaUBKTNV-1" source="RA6bnnp4AeprtvjU2am9-2" target="pAeidt-d0ilI6zGPQ01c-22">
          <mxGeometry relative="1" as="geometry">
            <mxPoint x="241" y="45" as="targetPoint" />
            <Array as="points">
              <mxPoint x="180" y="154" />
              <mxPoint x="180" y="55" />
            </Array>
          </mxGeometry>
        </mxCell>
        <mxCell id="RA6bnnp4AeprtvjU2am9-1" style="edgeStyle=orthogonalEdgeStyle;rounded=0;orthogonalLoop=1;jettySize=auto;html=1;dashed=1;endArrow=open;endFill=0;endSize=10;" edge="1" parent="WIyWlLk6GJQsqaUBKTNV-1" source="RA6bnnp4AeprtvjU2am9-2" target="pAeidt-d0ilI6zGPQ01c-8">
          <mxGeometry relative="1" as="geometry">
            <mxPoint x="241" y="95" as="targetPoint" />
            <Array as="points">
              <mxPoint x="180" y="154" />
              <mxPoint x="180" y="105" />
            </Array>
          </mxGeometry>
        </mxCell>
        <mxCell id="RA6bnnp4AeprtvjU2am9-2" value="java.swing" style="shape=folder;fontStyle=1;spacingTop=10;tabWidth=40;tabHeight=14;tabPosition=left;html=1;whiteSpace=wrap;" vertex="1" parent="WIyWlLk6GJQsqaUBKTNV-1">
          <mxGeometry x="50" y="130" width="70" height="50" as="geometry" />
        </mxCell>
        <mxCell id="RA6bnnp4AeprtvjU2am9-3" style="edgeStyle=orthogonalEdgeStyle;rounded=0;orthogonalLoop=1;jettySize=auto;html=1;dashed=1;endArrow=open;endFill=0;endSize=10;" edge="1" parent="WIyWlLk6GJQsqaUBKTNV-1" source="RA6bnnp4AeprtvjU2am9-2" target="pAeidt-d0ilI6zGPQ01c-9">
          <mxGeometry relative="1" as="geometry">
            <mxPoint x="140" y="164" as="sourcePoint" />
            <mxPoint x="181" y="106" as="targetPoint" />
            <Array as="points">
              <mxPoint x="200" y="154" />
              <mxPoint x="200" y="154" />
            </Array>
          </mxGeometry>
        </mxCell>
        <mxCell id="RA6bnnp4AeprtvjU2am9-4" style="edgeStyle=orthogonalEdgeStyle;rounded=0;orthogonalLoop=1;jettySize=auto;html=1;dashed=1;endArrow=open;endFill=0;endSize=10;" edge="1" parent="WIyWlLk6GJQsqaUBKTNV-1" source="RA6bnnp4AeprtvjU2am9-2" target="pAeidt-d0ilI6zGPQ01c-10">
          <mxGeometry relative="1" as="geometry">
            <mxPoint x="150" y="174" as="sourcePoint" />
            <mxPoint x="170" y="154" as="targetPoint" />
            <Array as="points">
              <mxPoint x="180" y="154" />
              <mxPoint x="180" y="205" />
            </Array>
          </mxGeometry>
        </mxCell>
        <mxCell id="RA6bnnp4AeprtvjU2am9-5" style="edgeStyle=orthogonalEdgeStyle;rounded=0;orthogonalLoop=1;jettySize=auto;html=1;dashed=1;endArrow=open;endFill=0;endSize=10;" edge="1" parent="WIyWlLk6GJQsqaUBKTNV-1" source="RA6bnnp4AeprtvjU2am9-2" target="pAeidt-d0ilI6zGPQ01c-13">
          <mxGeometry relative="1" as="geometry">
            <mxPoint x="140" y="164" as="sourcePoint" />
            <mxPoint x="181" y="204" as="targetPoint" />
            <Array as="points">
              <mxPoint x="180" y="154" />
              <mxPoint x="180" y="255" />
            </Array>
          </mxGeometry>
        </mxCell>
        <mxCell id="RA6bnnp4AeprtvjU2am9-11" value="&amp;lt;&amp;lt;contains&amp;gt;&amp;gt;" style="edgeLabel;html=1;align=center;verticalAlign=middle;resizable=0;points=[];" vertex="1" connectable="0" parent="RA6bnnp4AeprtvjU2am9-5">
          <mxGeometry x="-0.5053" relative="1" as="geometry">
            <mxPoint x="-7" y="-8" as="offset" />
          </mxGeometry>
        </mxCell>
      </root>
    </mxGraphModel>
  </diagram>
</mxfile>
